<svg width="56" height="56" viewBox="0 0 56 56" fill="none" xmlns="http://www.w3.org/2000/svg">
<path d="M34.9721 0.95497C20.1445 -3.01771 4.92853 5.76549 0.955089 20.5948C-3.01792 35.4219 5.7655 50.6384 20.5948 54.612C35.4115 58.5817 50.6358 49.8112 54.6119 34.9721C58.5849 20.1451 49.8015 4.92852 34.9721 0.95497ZM21.4372 51.468C8.34729 47.9604 0.591302 34.5285 4.09905 21.4372C4.42757 20.2113 4.84572 19.025 5.34615 17.8841L23.8042 27.5827C23.1541 28.2736 22.3918 28.8647 21.5365 29.3189L21.1013 27.8939C20.8387 27.0333 19.9281 26.5492 19.0686 26.8119C18.209 27.0745 17.725 27.9851 17.9876 28.8446L18.5216 30.5952C16.911 31.5361 15.7379 33.1043 15.2853 34.9331L13.4479 34.9168H13.4327C12.5406 34.9168 11.8135 35.6352 11.8059 36.5295C11.7972 37.4292 12.52 38.1639 13.4186 38.1715L15.2625 38.1878C15.6717 39.9503 16.7613 41.55 18.4315 42.5756L17.8661 44.3273C17.5904 45.1825 18.0604 46.0995 18.9156 46.3763C19.7719 46.652 20.6889 46.182 20.9657 45.3268L21.53 43.5752C23.1417 43.6902 24.6263 43.1693 26.1479 42.5398L26.9152 44.0657C27.3178 44.8656 28.2957 45.1933 29.102 44.7874C29.9041 44.3837 30.2275 43.4048 29.8238 42.6017L29.0575 41.079C30.2177 40.3866 31.3128 39.5889 32.3319 38.6957L33.5398 39.8917C34.179 40.5233 35.21 40.5179 35.8427 39.8787C36.4744 39.2395 36.469 38.2084 35.8297 37.5768L34.6196 36.3797C35.2246 35.6723 35.7859 34.9264 36.303 34.1501L48.6696 40.648C43.2394 49.4912 32.3373 54.3882 21.4372 51.468ZM51.468 34.1297C51.1315 35.3858 50.7003 36.6002 50.1834 37.7666L6.8497 14.9975C12.2665 6.10128 23.2012 1.17094 34.1297 4.09893C47.2198 7.60668 54.9758 21.0386 51.468 34.1297Z" fill="#434343"/>
<path d="M41.8163 23.375L40.1331 23.1243C40.234 21.7764 40.2134 20.4209 40.0679 19.0708L41.7469 18.7658C42.6314 18.6041 43.2185 17.7576 43.0579 16.872C42.8962 15.9886 42.0486 15.4015 41.1641 15.5621L39.4808 15.8692C38.9979 14.1187 37.8909 12.6763 36.3606 11.7701L36.9108 10.0163C37.18 9.15891 36.7025 8.2451 35.8451 7.97595C34.9866 7.7068 34.0728 8.18432 33.8037 9.0417L33.2524 10.7999C31.3683 10.6729 29.5309 11.3295 28.1352 12.5276L26.6256 11.4575C25.892 10.9366 24.8761 11.1102 24.3563 11.8428C23.8364 12.5765 24.009 13.5934 24.7426 14.1132L26.2534 15.1844C25.5913 16.8774 25.7433 18.2048 26.0558 19.6406L24.5679 19.6742C24.0285 19.6872 23.5575 19.9597 23.271 20.3699L39.0109 28.6408C39.2648 27.8877 39.4797 27.1214 39.6534 26.3444C41.3779 26.5962 41.3659 26.6135 41.5776 26.6135C42.3709 26.6135 43.0655 26.034 43.186 25.2255C43.3184 24.3366 42.7052 23.5085 41.8163 23.375Z" fill="#434343"/>
</svg>
