<svg width="65" height="56" viewBox="0 0 65 56" fill="none" xmlns="http://www.w3.org/2000/svg">
<path d="M44.5898 35.1172L48.6611 27.9998L44.5898 20.8799H36.4752L32.4065 27.9998L36.4739 35.1184L44.5898 35.1172ZM35.3274 27.4569L37.5193 23.6223C37.6152 23.4546 37.7537 23.3153 37.9209 23.2184C38.088 23.1215 38.2778 23.0705 38.4709 23.0705H42.7738C44.2241 23.0705 44.2241 25.2612 42.7738 25.2612H39.1025L37.2295 28.5427C36.517 29.7931 34.6022 28.7249 35.3274 27.4569Z" fill="#434343"/>
<path d="M22.3974 12.6655L18.3224 19.7854L22.3974 26.9053H30.5133L34.582 19.7854L30.5133 12.6655H22.3974ZM28.5985 17.0468H24.9285L23.0542 20.3284C22.3405 21.5762 20.4358 20.4941 21.1559 19.2413L23.3478 15.4079C23.4436 15.2404 23.5819 15.1011 23.7488 15.0042C23.9157 14.9072 24.1053 14.8562 24.2983 14.8562H28.6011C30.0514 14.8562 30.0489 17.0468 28.5985 17.0468Z" fill="#434343"/>
<path d="M22.3974 43.3343H30.5133L34.5833 36.2143L30.5095 29.0957H22.3974L18.3224 36.2143L22.3974 43.3343ZM23.3542 31.8356C23.4499 31.6705 23.5872 31.5333 23.7524 31.4376C23.9175 31.3419 24.1048 31.2911 24.2957 31.2901H28.5985C30.0489 31.2901 30.0463 33.4808 28.5985 33.4808H24.9285L23.053 36.7623C22.3379 38.0127 20.4257 36.9433 21.1547 35.6752L23.3542 31.8356Z" fill="#434343"/>
<path d="M58.1488 33.5684C57.7125 33.4465 57.2457 33.5019 56.8501 33.7226C56.4545 33.9433 56.1621 34.3113 56.0366 34.7466C53.0474 45.2506 43.3256 52.578 32.3964 52.578C19.6246 52.578 8.95738 42.6031 7.91205 30.0337L9.28009 31.4018C9.48362 31.6156 9.74094 31.7707 10.0251 31.8509C10.3092 31.9311 10.6096 31.9333 10.8949 31.8574C11.197 31.7732 11.4722 31.6125 11.6939 31.3908C11.9156 31.1691 12.0763 30.8939 12.1605 30.5918C12.2347 30.306 12.2306 30.0055 12.1486 29.7218C12.0667 29.4382 11.9099 29.1818 11.6947 28.9795L7.31725 24.5995C7.15883 24.4405 6.97045 24.3144 6.763 24.2286C6.55555 24.1428 6.33315 24.0989 6.10866 24.0996C5.88372 24.0985 5.6608 24.1421 5.45287 24.2279C5.24494 24.3137 5.05617 24.44 4.89754 24.5995L0.514983 28.9808C0.300261 29.1838 0.144172 29.4409 0.0631137 29.725C-0.0179445 30.0092 -0.0209793 30.3099 0.0543279 30.5956C0.138143 30.8979 0.298742 31.1732 0.520506 31.395C0.74227 31.6168 1.01765 31.7774 1.31986 31.8612C1.60559 31.9365 1.90633 31.9334 2.19048 31.8524C2.47463 31.7713 2.7317 31.6152 2.93469 31.4005L4.46346 29.8717C4.94547 36.9542 8.09669 43.5901 13.2809 48.4396C18.4652 53.2891 25.2963 55.9911 32.3951 56C44.8468 56 55.9227 47.6475 59.3283 35.6831C59.3899 35.4668 59.4082 35.2405 59.3822 35.0171C59.3563 34.7937 59.2865 34.5776 59.1769 34.3812C59.0674 34.1848 58.9202 34.0119 58.7438 33.8725C58.5674 33.733 58.3652 33.6297 58.1488 33.5684Z" fill="#434343"/>
<path d="M64.736 25.4044C64.6522 25.1022 64.4916 24.8268 64.2698 24.605C64.048 24.3833 63.7727 24.2227 63.4705 24.1389C63.1847 24.0635 62.884 24.0666 62.5998 24.1476C62.3157 24.2287 62.0586 24.3848 61.8556 24.5995L60.3269 26.1283C59.8448 19.0458 56.6936 12.4099 51.5094 7.56042C46.3252 2.7109 39.4941 0.00893558 32.3952 0C20.0613 0 9.31559 7.90581 5.65439 19.6728C5.55857 19.9526 5.53997 20.2531 5.60054 20.5427C5.66112 20.8322 5.79864 21.1 5.99861 21.318C6.21354 21.5465 6.48395 21.7156 6.78354 21.8087C7.08313 21.9019 7.40173 21.9159 7.70835 21.8495C7.99615 21.7833 8.26081 21.6408 8.47458 21.4371C8.68834 21.2333 8.84333 20.9758 8.92327 20.6915C10.4664 15.6766 13.5811 11.2906 17.8075 8.18124C22.034 5.07185 27.1482 3.40377 32.3952 3.42328C45.1683 3.42328 55.8355 13.3982 56.8808 25.9676L55.5128 24.5995C55.3098 24.3848 55.0527 24.2287 54.7685 24.1476C54.4844 24.0666 54.1837 24.0635 53.8979 24.1389C53.5957 24.2227 53.3203 24.3833 53.0986 24.605C52.8768 24.8268 52.7162 25.1022 52.6324 25.4044C52.5571 25.6901 52.5601 25.9909 52.6412 26.275C52.7222 26.5592 52.8783 26.8162 53.093 27.0192L57.4731 31.3992C57.6311 31.5597 57.8194 31.687 58.0271 31.7739C58.2348 31.8608 58.4578 31.9056 58.6829 31.9055C58.9085 31.9057 59.1318 31.861 59.34 31.7741C59.5481 31.6872 59.7369 31.5598 59.8953 31.3992L64.2753 27.0192C64.4901 26.8162 64.6461 26.5592 64.7272 26.275C64.8083 25.9909 64.8113 25.6901 64.736 25.4044Z" fill="#434343"/>
</svg>
