<svg width="50" height="56" viewBox="0 0 50 56" fill="none" xmlns="http://www.w3.org/2000/svg">
<path d="M49.3772 44.9548C49.3772 39.2415 44.7292 34.5933 39.0159 34.5933C25.2692 35.1626 25.2747 54.7497 39.0157 55.3164H39.0159C44.7292 55.3164 49.3772 50.6682 49.3772 44.9548ZM37.9478 49.9996C37.4937 49.9996 37.0384 49.8445 36.6673 49.5307L33.3729 46.745C32.5362 46.0375 32.4316 44.7859 33.139 43.9492C33.8463 43.1127 35.098 43.0077 35.9349 43.7153L37.8358 45.3227L42.1551 41.0034C42.9299 40.2286 44.1861 40.2286 44.9606 41.0034C45.7354 41.7782 45.7354 43.0343 44.9606 43.8089L39.3509 49.4185C38.9653 49.8042 38.4574 49.9996 37.9478 49.9996Z" fill="#434343"/>
<path d="M38.5539 30.6341C38.1015 29.4783 37.4297 28.2631 36.4807 26.6871L21.2964 1.12231C20.4001 -0.386702 18.2101 -0.370879 17.3357 1.15092L2.57506 26.8416C-6.73705 43.0517 10.9584 61.3802 27.6762 53.7038C20.5411 44.6371 26.9681 30.9325 38.5539 30.6341Z" fill="#434343"/>
</svg>
